<?xml version="1.0" encoding="utf-8"?>
<svg xmlns="http://www.w3.org/2000/svg">
  <defs>
    <style>
      :root svg:not(:target) {
      display: none;
      }
    </style>
  </defs>
  <svg id="logo-full" fill="none" viewBox="0 0 140 38">
    <path
      d="M29.212 19.6156V.140625h3.0931V16.7517h7.9046v2.8639H29.212ZM45.8223 19.6156h-2.9785V5.06664h2.9785V19.6156Zm0-16.611h-3.0931V.140625h3.0931V3.0046ZM61.2877 12.2838c0-2.74937-1.9475-4.81141-4.6969-4.81141-2.7494 0-4.8115 2.06204-4.8115 4.81141 0 2.7495 2.0621 4.8115 4.8115 4.8115 2.7494 0 4.6969-2.062 4.6969-4.8115Zm3.0931 0c0 4.3533-3.2077 7.6755-7.5609 7.6755-2.0621 0-3.7805-.8019-5.1552-1.9475l-.4582 1.6038h-2.1766V.140625h2.9785V6.44137c1.2602-1.03103 2.9785-1.71839 4.8115-1.71839 4.4678 0 7.5609 3.20762 7.5609 7.56082ZM69.3074 10.9093h8.821c-.5728-2.17665-2.1766-3.55137-4.4678-3.55137-2.2912 0-3.895 1.37472-4.3532 3.55137Zm11.7995 2.4057H69.3074c.3437 2.2912 2.0621 3.7804 4.4678 3.7804 1.7184 0 3.2076-.8019 3.895-2.1766h3.2076c-1.1456 3.0931-3.7804 4.926-7.1026 4.926-4.2387 0-7.5609-3.3221-7.5609-7.6754 0-4.35322 3.2077-7.67544 7.5609-7.67544 4.4678 0 7.4463 3.43678 7.4463 7.67544-.1145.5728-.1146.9165-.1146 1.1456ZM90.5018 7.81579c-2.5203 0-3.7804 1.37471-3.7804 4.00961v7.79h-2.9786V5.06638h1.9475l.6874 1.94752c1.031-1.37471 2.5203-2.06208 4.4678-2.06208h1.2602v2.86397h-1.6039ZM101.727 16.8654c-1.8332 0-2.7497-.9164-2.7497-2.7494V7.70074h4.2387V5.18046h-4.3533V1.97279l-5.7279 5.72795h2.7494v6.64446c0 3.2076 1.9475 5.1551 5.1548 5.1551h2.177v-2.7494h-1.489v.1145ZM108.143 10.9093h8.82c-.572-2.17665-2.176-3.55137-4.467-3.55137-2.177 0-3.781 1.37472-4.353 3.55137Zm11.799 2.4057h-11.799c.343 2.2912 2.062 3.7804 4.467 3.7804 1.719 0 3.208-.8019 3.895-2.1766h3.208c-1.146 3.0931-3.781 4.926-7.103 4.926-4.238 0-7.561-3.3221-7.561-7.6754 0-4.35322 3.208-7.67544 7.561-7.67544 4.468 0 7.447 3.43678 7.447 7.67544-.115.5728-.115.9165-.115 1.1456ZM123.265 19.6153h-3.322l5.27-7.5609-4.812-6.98812h3.322l3.208 4.92602 3.322-4.92602h3.323l-4.812 6.87352 5.27 7.6755h-3.437l-3.666-5.4989-3.666 5.4989ZM137.125 3.0046 135.98.82795l-.344 2.17665h-.458l.458-2.863975h.458l1.031 2.062045 1.031-2.062045h.459l.458 2.863975h-.458l-.344-2.17665-1.146 2.17665ZM135.063.598854h-1.031V3.0046h-.458V.598854h-1.031V.140625h2.406v.458229h.114Z"
      fill="#fff" />
    <path
      d="M19.4757 3.46315v2.06212L14.4349 10.566H5.72814L0 16.2942V14.232l5.04079-5.04071h8.82131l5.6136-5.72814Z"
      fill="#F2673A" />
    <path
      d="M15.3514 12.9718H6.64463L0 19.6165h19.4757V8.84758l-4.1243 4.12422ZM4.12423 6.78525H12.831L19.4757.140625H0V10.9095l4.12423-4.12425Z"
      fill="#F2673A" />
    <path
      d="M12.3043 36.1069c-.353-.1884-.6267-.4547-.8211-.7987-.1915-.338-.2872-.7388-.2872-1.2025V32.459c0-.4607.0957-.8631.2872-1.2071.1974-.3529.4711-.6222.8211-.8076.353-.1885.7553-.2827 1.207-.2827.4517 0 .854.0942 1.207.2827.347.1854.6192.4547.8167.8076.1944.347.2916.7494.2916 1.2071v1.6467c0 .4577-.0972.8585-.2916 1.2025-.1975.347-.4697.6133-.8167.7987-.3589.1915-.7613.2872-1.207.2872-.4457 0-.848-.0957-1.207-.2872Zm1.207-.3948c.4906 0 .875-.1421 1.1532-.4263s.4173-.6775.4173-1.1801V32.459c0-.4966-.1406-.89-.4218-1.1801-.2812-.2902-.6641-.4353-1.1487-.4353-.4846 0-.8675.1451-1.1487.4353-.2812.2901-.4218.6835-.4218 1.1801v1.6467c0 .4996.1406.8914.4218 1.1756.2842.2872.6671.4308 1.1487.4308ZM18.3439 30.7c-.1077.1077-.1616.2708-.1616.4891v.5609h1.4763v.6372h-1.4763v3.9037h-.7089v-3.9037h-1.0186V31.75h1.0186v-.6237c0-.3919.1107-.6955.332-.9109.2154-.2124.5235-.3185.9243-.3185h.9289v.6326h-.8346c-.2064 0-.3665.0569-.4801.1705Z"
      fill="#fff" />
    <path
      d="M21.2874 30.7c-.1077.1077-.1616.2708-.1616.4891v.5609h1.4763v.6372h-1.4763v3.9037h-.7089v-3.9037h-1.0186V31.75h1.0186v-.6237c0-.3919.1107-.6955.332-.9109.2154-.2124.5235-.3185.9244-.3185h.9288v.6326h-.8346c-.2064 0-.3665.0569-.4801.1705Zm2.0864 1.05h.709v4.5409h-.709V31.75Zm-.0358-1.6916h.7897v.7628h-.7897v-.7628ZM25.7565 35.9005c-.341-.326-.5115-.7717-.5115-1.3371v-1.0769c0-.5624.169-1.0096.507-1.3416.332-.3291.7912-.4936 1.3775-.4936.353 0 .6701.0703.9513.2109s.4995.338.6551.5923c.1555.2542.2333.5429.2333.866v.0852h-.7089v-.0852c0-.2872-.1062-.5265-.3186-.718-.2184-.1944-.4891-.2916-.8122-.2916-.356 0-.6431.1062-.8615.3186-.2154.2094-.3231.492-.3231.848v1.0949c0 .3559.1077.6371.3231.8435.2184.2094.5055.3141.8615.3141.338 0 .6103-.0927.8167-.2782.2094-.1884.3141-.4322.3141-.7314v-.0673h.7089v.0763c0 .3201-.0763.6088-.2288.866-.1496.2483-.3665.4442-.6507.5878-.2811.1406-.6012.2109-.9602.2109-.5713 0-1.029-.1645-1.373-.4936ZM30.0371 31.75h.7045v4.5409h-.7045V31.75Zm-.0404-1.6916h.7898v.7628h-.7898v-.7628ZM35.1389 32.0865c.3081.2932.4622.718.4622 1.2744v2.93h-.6372l-.0359-.4981c-.1615.1945-.3694.3426-.6237.4443-.2602.1047-.5444.157-.8525.157-.4757 0-.8481-.1092-1.1173-.3275-.2662-.2154-.3993-.5205-.3993-.9154 0-.3979.1301-.7135.3903-.9468.2573-.2303.6387-.3709 1.1442-.4218l1.4224-.148v-.3007c0-.341-.0927-.6027-.2782-.7852-.1854-.1825-.4517-.2737-.7987-.2737-.332 0-.5908.0837-.7762.2513-.1855.1675-.2782.3993-.2782.6955h-.709c0-.4906.1571-.875.4712-1.1532.314-.2782.7448-.4173 1.2922-.4173.5804 0 1.0216.1451 1.3237.4352Zm-.6192 3.4192c.2483-.2064.3724-.4622.3724-.7673v-.5519l-1.3057.1301c-.3231.0299-.5609.1107-.7135.2423-.1555.1316-.2333.3201-.2333.5654 0 .2273.0838.3993.2513.516.1615.1137.3963.1705.7045.1705.3739 0 .682-.1017.9243-.3051ZM36.8664 29.8969h.7045v6.394h-.7045v-6.394ZM42.2599 36.1069c-.353-.1884-.6267-.4547-.8212-.7987-.1914-.338-.2871-.7388-.2871-1.2025V32.459c0-.4607.0957-.8631.2871-1.2071.1975-.3529.4712-.6222.8212-.8076.3529-.1885.7553-.2827 1.207-.2827.4517 0 .854.0942 1.207.2827.347.1854.6192.4547.8166.8076.1945.347.2917.7494.2917 1.2071v1.6467c0 .4577-.0972.8585-.2917 1.2025-.1974.347-.4696.6133-.8166.7987-.359.1915-.7613.2872-1.207.2872-.4457 0-.8481-.0957-1.207-.2872Zm1.207-.3948c.4906 0 .875-.1421 1.1532-.4263s.4172-.6775.4172-1.1801V32.459c0-.4966-.1405-.89-.4217-1.1801-.2812-.2902-.6641-.4353-1.1487-.4353-.4846 0-.8675.1451-1.1487.4353-.2812.2901-.4218.6835-.4218 1.1801v1.6467c0 .4996.1406.8914.4218 1.1756.2842.2872.6671.4308 1.1487.4308ZM50.2872 32.109c.2932.3021.4397.7403.4397 1.3147v2.8672h-.6999v-2.7954c0-.3769-.1003-.6671-.3007-.8705-.2034-.2094-.4786-.3141-.8256-.3141-.356 0-.6461.1122-.8705.3365-.2243.2244-.3365.5071-.3365.8481v2.7954h-.7045V31.75h.6417l.0359.5609c.1465-.2064.3395-.368.5788-.4846.2363-.1167.5025-.175.7987-.175.5325 0 .9468.1525 1.2429.4577ZM52.0057 29.8969h.7045v6.394h-.7045v-6.394ZM54.0788 31.75h.7044v4.5409h-.7044V31.75Zm-.0404-1.6916h.7897v.7628h-.7897v-.7628ZM59.4498 32.109c.2931.3021.4397.7403.4397 1.3147v2.8672h-.7v-2.7954c0-.3769-.1002-.6671-.3006-.8705-.2034-.2094-.4786-.3141-.8256-.3141-.356 0-.6462.1122-.8705.3365-.2244.2244-.3365.5071-.3365.8481v2.7954h-.7045V31.75h.6416l.0359.5609c.1466-.2064.3395-.368.5789-.4846.2363-.1167.5025-.175.7987-.175.5324 0 .9467.1525 1.2429.4577ZM61.6709 34.2403v.3859c0 .353.1091.6342.3275.8436.2124.2034.5085.3051.8885.3051.3529 0 .6356-.0778.848-.2333.2214-.1616.3335-.371.3365-.6282h.7135c-.024.4547-.2049.8136-.543 1.0769-.347.2692-.7987.4038-1.355.4038-.5953 0-1.065-.1645-1.409-.4936-.344-.329-.516-.7747-.516-1.3371v-1.0769c0-.5624.1735-1.0096.5205-1.3416.341-.3291.8092-.4936 1.4045-.4936.5863 0 1.0484.163 1.3865.4891.341.329.5115.7718.5115 1.3281v.7718h-3.114Zm1.216-1.9922c-.368 0-.6626.1077-.884.323-.2214.2154-.332.4996-.332.8526v.2737h2.4095v-.2827c0-.353-.1092-.6357-.3275-.8481-.2184-.2123-.5071-.3185-.866-.3185ZM72.009 30.9423h-1.9384v5.3486h-.7448v-5.3486h-1.9384v-.6775h4.6216v.6775ZM74.782 31.75v.6461h-.4846c-.3888 0-.688.1152-.8974.3455-.2124.2364-.3186.5684-.3186.9962v2.5531h-.7044V31.75h.6416l.0449.6282c.1346-.2004.3066-.356.516-.4667.2064-.1077.4457-.1615.7179-.1615h.4846ZM78.5467 32.0865c.3081.2932.4621.718.4621 1.2744v2.93h-.6371l-.0359-.4981c-.1616.1945-.3695.3426-.6237.4443-.2603.1047-.5445.157-.8526.157-.4756 0-.848-.1092-1.1172-.3275-.2663-.2154-.3994-.5205-.3994-.9154 0-.3979.1301-.7135.3904-.9468.2572-.2303.6386-.3709 1.1442-.4218l1.4224-.148v-.3007c0-.341-.0927-.6027-.2782-.7852s-.4517-.2737-.7987-.2737c-.332 0-.5908.0837-.7763.2513-.1854.1675-.2782.3993-.2782.6955h-.7089c0-.4906.157-.875.4711-1.1532.3141-.2782.7449-.4173 1.2923-.4173.5803 0 1.0215.1451 1.3237.4352Zm-.6192 3.4192c.2482-.2064.3724-.4622.3724-.7673v-.5519l-1.3058.1301c-.323.0299-.5608.1107-.7134.2423-.1555.1316-.2333.3201-.2333.5654 0 .2273.0837.3993.2513.516.1615.1137.3963.1705.7044.1705.3739 0 .6821-.1017.9244-.3051ZM83.9401 29.8969v6.394h-.6372l-.0448-.5788c-.1466.2154-.3425.3829-.5878.5025-.2423.1197-.5175.1795-.8256.1795-.5534 0-.9872-.1615-1.3013-.4846-.3171-.3261-.4756-.7688-.4756-1.3282v-1.1397c0-.5474.1615-.9841.4846-1.3102.3231-.3261.7538-.4891 1.2923-.4891.2931 0 .5623.0583.8076.175.2423.1137.4383.2752.5878.4846v-2.405h.7Zm-1.041 5.4966c.2274-.2244.341-.513.341-.866v-1.0006c0-.353-.1151-.6447-.3455-.875-.2273-.2273-.519-.341-.8749-.341-.377 0-.6776.1092-.9019.3275-.2214.2154-.3321.5116-.3321.8885v.9826c0 .3799.1092.6791.3276.8975.2153.2153.5175.323.9064.323.3559 0 .6491-.1122.8794-.3365ZM85.2189 31.75h.7045v4.5409h-.7045V31.75Zm-.0404-1.6916h.7898v.7628h-.7898v-.7628ZM90.5899 32.109c.2932.3021.4398.7403.4398 1.3147v2.8672h-.7v-2.7954c0-.3769-.1002-.6671-.3007-.8705-.2034-.2094-.4786-.3141-.8256-.3141-.3559 0-.6461.1122-.8705.3365-.2243.2244-.3365.5071-.3365.8481v2.7954h-.7045V31.75h.6417l.0359.5609c.1466-.2064.3395-.368.5788-.4846.2363-.1167.5026-.175.7987-.175.5325 0 .9468.1525 1.2429.4577ZM95.9564 31.75v4.4287c0 .5744-.1645 1.0141-.4935 1.3192-.3261.3051-.7987.4577-1.4179.4577-.5983 0-1.065-.1316-1.4-.3949-.332-.2632-.5055-.6311-.5205-1.1038h.7045c.0149.2782.1271.4906.3365.6372.2124.1496.5085.2243.8884.2243.3829 0 .6761-.0957.8795-.2871.2094-.1945.3141-.4682.3141-.8212v-.673c-.1526.1735-.3485.3111-.5878.4128-.2333.0987-.4906.1481-.7718.1481-.5564 0-.9901-.1541-1.3012-.4622-.3141-.3081-.4712-.7329-.4712-1.2743v-.9827c0-.5295.1601-.9498.4801-1.2609.3201-.3111.7509-.4666 1.2923-.4666.2902 0 .5549.0553.7942.166.2483.1137.4457.2662.5923.4577l.0449-.525h.6371Zm-1.9114 3.7332c.3529 0 .6416-.1077.866-.323.2243-.2154.3365-.4906.3365-.8257v-.8839c0-.332-.1137-.6058-.341-.8211-.2334-.2184-.5205-.3276-.8615-.3276-.377 0-.6731.1032-.8885.3096-.2184.2094-.3275.4891-.3275.8391v.875c0 .3649.1077.6491.323.8525.2184.2034.516.3051.893.3051ZM102.265 30.2648c.581 0 1.037.1525 1.369.4577.332.3051.498.7284.498 1.2698 0 .5355-.168.9572-.503 1.2654-.335.3081-.789.4621-1.364.4621h-1.808v2.5711h-.7359v-6.0261h2.5439Zm.817 2.5217c.209-.1914.314-.4562.314-.7942s-.103-.6013-.31-.7897c-.203-.1855-.495-.2782-.875-.2782h-1.754v2.1403h1.754c.377 0 .667-.0927.871-.2782ZM108.027 32.0865c.308.2932.462.718.462 1.2744v2.93h-.637l-.036-.4981c-.162.1945-.37.3426-.624.4443-.26.1047-.544.157-.853.157-.475 0-.848-.1092-1.117-.3275-.266-.2154-.399-.5205-.399-.9154 0-.3979.13-.7135.39-.9468.257-.2303.639-.3709 1.144-.4218l1.423-.148v-.3007c0-.341-.093-.6027-.278-.7852-.186-.1825-.452-.2737-.799-.2737-.332 0-.591.0837-.776.2513-.186.1675-.279.3993-.279.6955h-.708c0-.4906.157-.875.471-1.1532.314-.2782.745-.4173 1.292-.4173.58 0 1.021.1451 1.324.4352Zm-.62 3.4192c.249-.2064.373-.4622.373-.7673v-.5519l-1.306.1301c-.323.0299-.561.1107-.713.2423-.156.1316-.234.3201-.234.5654 0 .2273.084.3993.252.516.161.1137.396.1705.704.1705.374 0 .682-.1017.924-.3051ZM112.159 31.75v.6461h-.484c-.389 0-.688.1152-.898.3455-.212.2364-.318.5684-.318.9962v2.5531h-.705V31.75h.642l.045.6282c.134-.2004.306-.356.516-.4667.206-.1077.445-.1615.718-.1615h.484ZM114.102 32.3872v2.589c0 .2184.057.3874.171.507.11.1167.278.175.502.175h.835v.6327h-.92c-.416 0-.736-.1077-.96-.3231-.222-.2124-.332-.522-.332-.9288v-2.6518h-1.023V31.75h1.023v-1.2205h.704V31.75h1.508v.6372h-1.508ZM119.801 32.109c.293.3021.439.7403.439 1.3147v2.8672h-.7v-2.7954c0-.3769-.1-.6671-.3-.8705-.204-.2094-.479-.3141-.826-.3141-.356 0-.646.1122-.87.3365-.225.2244-.337.5071-.337.8481v2.7954h-.704V31.75h.641l.036.5609c.147-.2064.34-.368.579-.4846.236-.1167.503-.175.799-.175.532 0 .947.1525 1.243.4577ZM122.022 34.2403v.3859c0 .353.109.6342.327.8436.213.2034.509.3051.889.3051.353 0 .635-.0778.848-.2333.221-.1616.333-.371.336-.6282h.714c-.024.4547-.205.8136-.543 1.0769-.347.2692-.799.4038-1.355.4038-.596 0-1.065-.1645-1.409-.4936-.344-.329-.516-.7747-.516-1.3371v-1.0769c0-.5624.173-1.0096.52-1.3416.341-.3291.809-.4936 1.405-.4936.586 0 1.048.163 1.386.4891.341.329.512.7718.512 1.3281v.7718h-3.114Zm1.216-1.9922c-.368 0-.663.1077-.884.323-.222.2154-.332.4996-.332.8526v.2737h2.409v-.2827c0-.353-.109-.6357-.327-.8481-.219-.2123-.507-.3185-.866-.3185ZM128.681 31.75v.6461h-.485c-.389 0-.688.1152-.897.3455-.213.2364-.319.5684-.319.9962v2.5531h-.705V31.75h.642l.045.6282c.135-.2004.307-.356.516-.4667.206-.1077.446-.1615.718-.1615h.485Z"
      fill="#fff" />
  </svg>
  <svg id="logo" viewBox="0 0 104 15">
    <path
      d="M22.4965 14.4162V.0794678h2.2827V12.2923h5.7768v2.1239h-8.0595ZM34.691 2.18608h-2.2827V.0794678h2.2827V2.18608ZM34.6507 14.4162h-2.2033V3.69788h2.2033V14.4162Z"
      fill="#fff" />
    <path fill-rule="evenodd" clip-rule="evenodd"
      d="M42.7688 14.6751c3.2549 0 5.5778-2.4023 5.5778-5.61807 0-3.23528-2.3229-5.61687-5.5778-5.61687-1.2891-.01871-2.5424.42449-3.5333 1.24947V.0794678h-2.2032V14.4162h1.5705l.375-1.2104c1.0275.9594 2.3854 1.4856 3.791 1.4693Zm-.1783-9.13178c2.0249 0 3.493 1.48878 3.493 3.51371 0 2.00537-1.4681 3.51367-3.493 3.51367-2.0249 0-3.5137-1.529-3.5137-3.51367 0-2.00422 1.4888-3.51371 3.5137-3.51371ZM60.5985 9.81179H51.904c.2577 1.72581 1.5083 2.79811 3.2756 2.79811 1.2655 0 2.3217-.5949 2.8763-1.5682h2.3229c-.8537 2.2631-2.8188 3.6334-5.2004 3.6334-3.1363 0-5.5225-2.4219-5.5225-5.61806 0-3.21572 2.3827-5.61687 5.5225-5.61687 3.2744 0 5.4581 2.5208 5.4581 5.63758.0012.24161-.0184.49588-.038.73404Zm-8.6554-1.78677h6.4913c-.3969-1.628-1.628-2.60019-3.2548-2.60019-1.6683 0-2.8591.99175-3.2365 2.60019Z"
      fill="#fff" />
    <path
      d="M64.8428 8.69923c0-1.94094.9124-2.97642 2.7394-2.97642h1.1506V3.63806h-.9527c-1.4485 0-2.5012.49357-3.2755 1.52905l-.474-1.46923h-1.391V14.4162h2.2032V8.69923ZM75.82 12.412c-1.3104 0-2.0053-.7145-2.0053-1.9847V5.72281h3.157V3.8371h-3.1755V1.49577l-4.2316 4.23164h2.0479v4.88289c0 2.362 1.4486 3.8105 3.7899 3.8105h1.6291V12.412H75.82Z"
      fill="#fff" />
    <path fill-rule="evenodd" clip-rule="evenodd"
      d="M80.49 9.81179h8.6945c.0038-.0516.0078-.10395.0119-.15676V9.6547c.0146-.19087.0297-.38779.0342-.57695 0-3.11678-2.1837-5.63758-5.4593-5.63758-3.1409 0-5.5225 2.40115-5.5225 5.61687 0 3.19616 2.3862 5.61806 5.5225 5.61806 2.3816 0 4.3467-1.3703 5.2004-3.6334h-2.3298c-.5534.9733-1.6107 1.5682-2.8763 1.5682-1.7661 0-3.0167-1.0723-3.2756-2.79811Zm6.5316-1.78677h-6.4913c.3774-1.60844 1.5682-2.60019 3.2353-2.60019 1.628 0 2.8579.97219 3.256 2.60019Z"
      fill="#fff" />
    <path
      d="M91.649 14.4162h-2.4161l3.8105-5.53749-3.5137-5.17737h2.4621L94.3734 7.314l2.4414-3.61266h2.4161l-3.5735 5.06232 3.8508 5.65714h-2.4828l-2.6796-4.089-2.6968 4.0844ZM99.5692.391261h.6998V.0794678h-1.7871V.391261h.7502V2.18608h.3371V.391261ZM101.718 2.18608h.076l.741-1.567015.271 1.567015h.328l-.356-2.1066122h-.301l-.725 1.5428622-.725-1.5428622h-.295l-.354 2.1066122h.329l.269-1.567015.742 1.567015Z"
      fill="#fff" />
    <g clip-path="url(#a)" fill="#F63">
      <path
        d="M15.3632 2.47632v1.53055L11.581 7.78963l-6.48285-.00058L.866577 12.0203v-1.5311L4.64962 6.70615l6.48288.00087 4.2307-4.2307Z" />
      <path
        d="m12.3062 9.54024-6.48293-.00029L.866577 14.4966H15.3632l.0003-8.0137-3.0573 3.05734ZM3.9245 4.95582l6.4829.00029L15.3635.00028965 15.3632 0H.866577v8.01404L3.9245 4.95582Z" />
    </g>
    <defs>
      <clipPath id="a">
        <path fill="#fff" transform="translate(.866577)" d="M0 0h14.4966v14.4966H0z" />
      </clipPath>
    </defs>
  </svg>
  <svg id="bayern" fill="none" viewBox="0 0 56 56">
    <path
      d="M27.9204 0.153809C12.4454 0.153809 0.026001 12.6718 0.026001 28.0482C0.026001 43.5232 12.544 55.9427 27.9204 55.9427C43.3954 55.9427 55.8149 43.4247 55.8149 28.0482C55.9135 12.6718 43.3954 0.153809 27.9204 0.153809Z"
      fill="#006FBA" />
    <path
      d="M27.923 1.53369C13.2365 1.53369 1.40848 13.4603 1.40848 28.0482C1.40848 42.7347 13.335 54.5627 27.923 54.5627C42.6094 54.5627 54.4375 42.6361 54.4375 28.0482C54.4375 13.4603 42.6094 1.53369 27.923 1.53369Z"
      fill="white" />
    <path
      d="M27.9215 43.9176C19.2476 43.9176 12.1508 36.8208 12.1508 28.1469C12.1508 19.473 19.2476 12.3762 27.9215 12.3762C36.5954 12.3762 43.6922 19.473 43.6922 28.1469C43.6922 36.8208 36.694 43.9176 27.9215 43.9176ZM27.9215 2.81519C13.925 2.81519 2.58987 14.1504 2.58987 28.1469C2.58987 42.1434 13.925 53.4786 27.9215 53.4786C41.918 53.4786 53.2532 42.1434 53.2532 28.1469C53.2532 14.1504 41.918 2.81519 27.9215 2.81519Z"
      fill="#E11837" />
    <path
      d="M41.8193 23.8098C41.1293 21.6414 40.0451 19.7686 38.6651 18.2901V24.7955L42.4107 30.2167C42.6078 28.1468 42.5093 25.9783 41.8193 23.8098ZM38.6651 32.2866V24.7955L34.4268 18.5858V15.0374C33.4411 14.5446 32.3569 14.1503 31.1741 13.8546L34.4268 18.5858V26.0769L38.6651 32.2866V38.0035C39.4537 37.1164 40.1436 36.2293 40.735 35.2436L38.6651 32.2866ZM23.6829 14.2488C21.5145 14.9388 19.6417 16.0231 18.0646 17.5016L21.6131 22.627V30.1181L25.8514 36.3278V42.5376C27.9213 42.8333 30.1884 42.7347 32.3568 42.0447C34.5253 41.3547 36.3981 40.2705 37.9752 38.792L34.4268 33.6665V26.1754L30.1884 19.9657V13.756C28.0199 13.3617 25.8514 13.5589 23.6829 14.2488ZM30.0898 27.4568L25.8514 21.2471V13.756L30.0898 19.9657V27.4568L34.3282 33.6665V41.1576L30.0898 34.9479V27.4568ZM25.8514 28.7382L30.0898 34.9479V42.439L25.8514 36.2293V28.7382L21.6131 22.5285V15.0374L25.8514 21.2471V28.7382ZM21.5145 37.6092V30.1181L17.2761 23.9084V18.1915C16.4876 19.0786 15.7976 19.9657 15.2062 20.9514L17.1776 23.9084V31.3995L21.5145 37.6092V41.1576C22.5001 41.6505 23.5844 42.0447 24.7672 42.3404L21.5145 37.6092ZM14.0234 32.3852C14.7134 34.5536 15.7976 36.4264 17.1776 37.9049V31.3995L13.432 25.9783C13.2349 28.0482 13.432 30.2167 14.0234 32.3852Z"
      fill="#006FBA" />
    <path
      d="M11.0667 33.272L11.7566 34.8491L10.5738 37.0176C10.3767 37.3133 10.2781 37.609 10.2781 37.609C10.2781 37.609 10.5738 37.609 10.9681 37.7076L13.4323 37.9047L14.3193 39.3832L8.99677 42.5373L8.10964 41.1574L10.3767 39.876C10.8695 39.5803 11.2638 39.3832 11.2638 39.3832C11.2638 39.3832 10.9681 39.3832 10.3767 39.2846L8.10964 38.9889L9.09531 36.919C9.29245 36.4262 9.4896 36.1305 9.4896 36.1305C9.4896 36.1305 9.09531 36.3276 8.60248 36.6233L6.13831 37.609L5.44832 36.1305L11.0667 33.272Z"
      fill="white" />
    <path
      d="M17.6708 42.1429L16.0937 43.2271L16.7837 41.4529L17.6708 42.1429ZM15.108 40.0729L16.3894 41.1572L13.9253 44.1142C13.531 44.607 13.5309 45.0999 14.1223 45.5927C14.7137 46.0855 15.2066 45.987 15.6009 45.4941L17.8679 42.34L19.2478 43.3256L16.8823 46.4798C15.798 47.9583 14.4181 47.6626 13.2353 46.6769C12.0525 45.6913 11.4611 44.4099 12.5453 43.0299L15.108 40.0729Z"
      fill="white" />
    <path
      d="M20.2329 43.9171L21.81 44.5085L22.6971 47.6626C22.8942 48.3526 22.9928 48.6483 22.9928 48.6483C22.9928 48.6483 23.0914 48.1555 23.2885 47.6626L23.9785 45.1984L25.5556 45.5927L23.9785 51.6053L22.3029 51.211L21.2186 47.9583C21.0215 47.3669 20.9229 46.9726 20.9229 46.9726C20.9229 46.9726 20.8244 47.4655 20.6272 47.9583L19.7401 50.5211L18.2616 49.9296L20.2329 43.9171Z"
      fill="white" />
    <path
      d="M32.3581 49.2399C32.3581 50.7184 31.471 51.7041 29.6968 51.8027C28.0212 51.9012 26.5426 51.2113 26.444 48.7471C26.3455 46.2829 27.7254 45.3958 29.3025 45.2972C30.9781 45.1987 31.9638 46.1844 32.161 47.4657L30.4853 47.5643C30.2882 46.9729 29.9925 46.6772 29.3025 46.6772C28.6125 46.6772 28.1197 47.3672 28.2183 48.6485C28.3169 49.9299 28.8097 50.4227 29.5982 50.4227C30.3867 50.3242 30.6824 50.0285 30.781 49.3385L32.3581 49.2399Z"
      fill="white" />
    <path
      d="M32.751 45.0016L34.2295 44.4102L35.1167 46.4801L37.088 45.593L36.1023 43.5231L37.4822 42.8331L40.2421 48.3528L38.8622 49.1414L37.6794 46.9729L35.708 47.86L36.6937 50.1271L35.1167 50.7184L32.751 45.0016Z"
      fill="white" />
    <path
      d="M38.4683 42.0444L41.5239 39.1859L42.411 40.1716L40.5382 41.9458L41.3267 42.7344L43.1009 40.9601L43.9881 41.9458L42.1153 43.72L42.9038 44.6071L45.0723 42.5372L45.9594 43.5229L42.7066 46.677L38.4683 42.0444Z"
      fill="white" />
    <path
      d="M42.2145 38.2992L43.1017 36.8207L46.3544 36.4264C47.0443 36.3278 47.4386 36.3279 47.4386 36.3279C47.4386 36.3279 47.0444 36.1307 46.453 35.9336L44.0873 34.8493L44.6787 33.3708L50.297 35.9336L49.607 37.5106L46.2558 38.0035C45.5658 38.102 45.1715 38.102 45.1715 38.102C45.1715 38.102 45.6644 38.2992 46.1572 38.5949L48.5228 39.8762L47.7343 41.2562L42.2145 38.2992Z"
      fill="white" />
    <path
      d="M6.63143 17.6986L7.91279 18.1915L6.92712 20.9514L8.10993 21.3456L8.99706 18.7829L10.1798 19.2757L9.29275 21.7399L11.4612 22.5284L11.0669 24.1055L5.05438 22.1341L6.63143 17.6986Z"
      fill="white" />
    <path
      d="M14.2208 13.657C15.3051 14.6426 15.5022 15.924 14.418 17.3039C13.4323 18.5853 11.9538 19.1767 9.98245 17.6982C8.01112 16.2197 8.3068 14.544 9.29247 13.2627C10.3767 11.8827 11.7566 11.7842 12.8409 12.5727L11.8552 13.8541C11.3624 13.5584 10.8695 13.5584 10.3767 14.1498C9.88385 14.7412 9.98243 15.5297 11.0667 16.3182C12.0523 17.1068 12.8409 17.0082 13.3337 16.5154C13.8265 15.924 13.728 15.4312 13.2352 14.9383L14.2208 13.657Z"
      fill="white" />
    <path
      d="M20.3322 11.0945C20.825 10.8974 20.9235 10.7003 20.7264 10.2074C20.5293 9.71459 20.2336 9.71458 19.7407 10.0103L18.9522 10.4045L19.5436 11.4888L20.3322 11.0945ZM19.2479 8.82746C19.6422 8.63033 19.8393 8.43321 19.6422 8.03894C19.4451 7.64467 19.1493 7.64466 18.7551 7.84179L17.868 8.23608L18.3608 9.3203L19.2479 8.82746ZM18.3608 6.56043C19.4451 6.0676 20.5293 5.96903 21.0221 7.05327C21.4164 7.94037 21.1207 8.33465 20.7264 8.72892C21.2192 8.63035 21.9092 8.63035 22.4021 9.61602C22.8949 10.8974 22.1063 11.5874 21.0221 12.0802L18.6565 13.1644L15.8967 7.64468L18.3608 6.56043Z"
      fill="white" />
    <path
      d="M26.9352 8.33447L26.4424 7.15169C26.2452 6.75742 26.1467 6.36313 26.1467 6.36313C26.1467 6.36313 26.0481 6.75742 25.9495 7.15169L25.6539 8.43304L26.9352 8.33447ZM29.6951 10.7001H27.9209L27.428 9.61586L25.2596 9.81297L24.9639 10.9958L23.1897 11.2915L24.8653 4.78608L26.8367 4.58894L29.6951 10.7001Z"
      fill="white" />
    <path
      d="M31.2724 8.82748L29.7939 4.39197L31.6667 4.78626L32.2581 6.65903C32.3567 7.05329 32.4552 7.34898 32.4552 7.34898C32.4552 7.34898 32.6524 7.0533 32.9481 6.7576L34.2294 5.27909L36.1022 5.77193L32.9481 9.22177L32.4552 11.2917L30.7796 10.8974L31.2724 8.82748Z"
      fill="white" />
    <path
      d="M37.2849 6.36327L41.2276 8.43318L40.5377 9.61599L38.172 8.3346L37.6792 9.22173L39.8477 10.5031L39.2562 11.5873L37.0878 10.4045L36.4964 11.4888L38.862 12.7701L38.172 13.9529L34.525 11.883L37.2849 6.36327Z"
      fill="white" />
    <path
      d="M42.5105 13.3615L43.2004 14.0515C43.5947 14.4458 43.8904 14.4458 44.2847 14.0515C44.6789 13.6572 44.6789 13.3615 44.2847 12.9672L43.5947 12.2773L42.5105 13.3615ZM43.3975 10.2074L45.2703 12.2773C46.256 13.3615 46.4531 14.3472 45.2703 15.3328C44.4818 16.0228 43.989 16.1214 43.299 15.9242L42.3133 18.3884L41.1305 16.9099L42.0176 14.84L41.5248 14.2486L40.0463 15.7271L38.8635 14.5443L43.3975 10.2074Z"
      fill="white" />
    <path
      d="M44.9739 24.1052L44.3825 22.5281L46.2553 19.8668C46.6496 19.2754 46.8467 18.9797 46.8467 18.9797C46.8467 18.9797 46.4524 19.1768 45.861 19.4725L43.4954 20.5568L42.8055 19.0783L48.4238 16.5155L49.2123 18.0926L47.3395 20.951C46.9452 21.5424 46.7481 21.8381 46.7481 21.8381C46.7481 21.8381 47.241 21.641 47.7338 21.4439L50.198 20.4582L50.6908 22.0353L44.9739 24.1052Z"
      fill="white" />
  </svg>
  <svg id="icon-fund" fill="none" viewBox="0 0 88 88">
    <circle cx="44" cy="44" r="44" fill="#F5F5F5" />
    <path
      d="M59.5724 23.1751H46.0996L36.8175 18.5096C34.9421 17.5885 32.6473 18.3502 31.6972 20.2156L30.2149 23.1751H28.4281C24.883 23.1751 22 26.0587 22 29.6027V58.0962C22 61.6407 24.883 64.5237 28.4275 64.5237H59.5719C63.1165 64.5237 66 61.6407 66 58.0962V29.6027C66 26.0581 63.1165 23.1751 59.5724 23.1751ZM59.5724 25.9637C61.5797 25.9637 63.212 27.5964 63.212 29.6027V30.9679H61.6019L51.6467 25.9637H59.5724ZM34.1867 21.4717C34.4447 20.9658 35.0724 20.759 35.5768 21.0069L55.3922 30.9679H29.4299L32.3604 25.1181C32.3619 25.1149 32.3635 25.1122 32.3651 25.1091L34.1867 21.4717ZM28.4275 25.9637H28.8174L26.3105 30.9679H24.7886V29.6027C24.7886 27.5964 26.4213 25.9637 28.4275 25.9637ZM59.5719 61.7351H28.4275C26.4213 61.7351 24.7886 60.1024 24.7886 58.0962V33.7565H27.1477C27.1546 33.7565 27.1609 33.7613 27.1678 33.7613C27.1794 33.7613 27.191 33.757 27.2026 33.7565H61.1804C61.1888 33.757 61.1967 33.7565 61.2047 33.7565H63.2114V36.8595H55.0103C49.8926 36.8595 45.7287 41.0134 45.7287 46.1184C45.7287 48.3414 46.5116 50.4695 47.8727 52.0342C48.0452 52.2642 48.2435 52.4694 48.444 52.6694C50.0324 54.2857 52.161 55.2469 54.3187 55.364C54.5392 55.3962 54.7903 55.401 55.0103 55.401H63.2114V58.0962C63.2114 60.1024 61.5787 61.7351 59.5719 61.7351ZM63.2114 52.6124H55.0103C54.9137 52.6119 54.8072 52.6177 54.5951 52.5918C53.013 52.5021 51.5343 51.8353 50.417 50.699C50.3088 50.5903 50.1965 50.4843 50.0419 50.2843C49.0586 49.1501 48.5173 47.6709 48.5173 46.1184C48.5173 42.5501 51.4299 39.6481 55.0103 39.6481H63.2114V52.6124Z"
      fill="black" />
    <circle cx="55.1664" cy="46.2097" r="4" fill="#FF6633" />
  </svg>
  <svg id="icon-reg" fill="none" viewBox="0 0 88 88">
    <circle cx="44.0023" cy="44" r="44" fill="#F5F5F5" />
    <path fill-rule="evenodd" clip-rule="evenodd"
      d="M43.6521 53.5001C40.6964 53.5082 37.7828 54.3179 33.949 56.0356L32.7224 53.2978C36.7441 51.496 40.0968 50.5099 43.6438 50.5001C47.1787 50.4903 50.7588 51.4508 55.2358 53.2779L54.1022 56.0555C49.7785 54.291 46.6197 53.4918 43.6521 53.5001Z"
      fill="black" />
    <path fill-rule="evenodd" clip-rule="evenodd"
      d="M44.0023 42.5C40.4125 42.5 37.5023 39.5899 37.5023 36C37.5023 32.4102 40.4125 29.5 44.0023 29.5C47.5922 29.5 50.5023 32.4102 50.5023 36C50.5023 39.5899 47.5922 42.5 44.0023 42.5ZM34.5023 36C34.5023 41.2467 38.7556 45.5 44.0023 45.5C49.249 45.5 53.5023 41.2467 53.5023 36C53.5023 30.7533 49.249 26.5 44.0023 26.5C38.7556 26.5 34.5023 30.7533 34.5023 36Z"
      fill="black" />
    <path fill-rule="evenodd" clip-rule="evenodd"
      d="M18.5023 44C18.5023 29.9167 29.9191 18.5 44.0023 18.5C58.0856 18.5 69.5023 29.9167 69.5023 44C69.5023 45.9455 69.2841 47.8418 68.8704 49.6652L65.9448 49.0014C66.3094 47.3943 66.5023 45.7206 66.5023 44C66.5023 31.5736 56.4287 21.5 44.0023 21.5C31.5759 21.5 21.5023 31.5736 21.5023 44C21.5023 56.4264 31.5759 66.5 44.0023 66.5C45.7229 66.5 47.3966 66.3071 49.0037 65.9424L49.6676 68.8681C47.8441 69.2818 45.9478 69.5 44.0023 69.5C29.9191 69.5 18.5023 58.0832 18.5023 44Z"
      fill="black" />
    <path d="M62.669 57.3334V68" stroke="#FF6633" stroke-width="3" />
    <path d="M68.0023 62.6667L57.3356 62.6667" stroke="#FF6633" stroke-width="3" />
  </svg>
  <svg id="icon-rocket" fill="none" viewBox="0 0 88 88">
    <circle cx="43.9977" cy="44" r="44" fill="#F5F5F5" />
    <path
      d="M22.4548 64.4911C21.8637 63.9 21.8637 62.9394 22.4548 62.3483L28.4367 56.3665C29.0277 55.7754 29.9884 55.7754 30.5794 56.3665C31.1705 56.9575 31.1705 57.9182 30.5794 58.5092L24.5975 64.4911C24.0065 65.0821 23.0458 65.0821 22.4548 64.4911ZM29.508 65.1161C28.917 64.525 28.917 63.5644 29.508 62.9733L32.2758 60.2056C32.8668 59.6145 33.8275 59.6145 34.4185 60.2056C35.0096 60.7966 35.0096 61.7573 34.4185 62.3483L31.6508 65.1161C31.0598 65.7071 30.0991 65.7071 29.508 65.1161ZM21.9191 57.5271C21.3281 56.9361 21.3281 55.9754 21.9191 55.3844L24.6868 52.6166C25.2779 52.0256 26.2385 52.0256 26.8296 52.6166C27.4206 53.2077 27.4206 54.1683 26.8296 54.7594L24.0619 57.5271C23.4708 58.1182 22.5101 58.1182 21.9191 57.5271ZM39.8291 60.0055L26.994 47.1704L13.8124 44.9205L27.9457 30.7872C31.3366 27.3963 36.9435 27.2784 40.8951 30.4515C41.7219 29.689 42.4683 29.0248 43.1647 28.4248C45.6395 25.9713 50.759 24.1553 53.4106 23.5857C54.7356 23.3 59.3157 22.434 62.5888 23.2536L63.5191 23.4875L63.7066 24.4285C64.4333 28.0587 63.7959 32.721 62.9584 35.8727C62.3174 38.2815 61.1674 40.3778 60.1282 42.1099L60.1103 42.1384L60.0282 42.2563L60.0139 42.2706C59.0639 43.442 57.939 44.7133 56.5801 46.1472C59.7139 50.0952 59.5818 55.6807 56.2087 59.0537L42.0754 73.187L39.8255 60.0055L39.8291 60.0055ZM44.0807 66.8998L54.0695 56.911C56.2873 54.6932 56.4141 51.0952 54.4445 48.3435C53.1838 49.6006 51.4625 51.297 49.6536 53.0808C47.4127 55.2932 44.8789 57.7913 42.87 59.7966L44.0807 66.8962L44.0807 66.8998ZM38.6577 32.5603C35.9061 30.5836 32.308 30.7104 30.0867 32.9317L20.0978 42.9206L27.194 44.1312C27.7654 43.5455 28.36 42.9331 28.9796 42.2956C31.8455 39.3475 35.3793 35.7102 38.6559 32.5621L38.6577 32.5603ZM41.2308 57.1217C41.5897 56.7556 42.0968 56.2414 42.5022 55.8325L42.7075 55.6271L31.3331 44.2526L29.8581 45.749L41.2326 57.1235L41.2308 57.1217ZM44.8878 53.4397C45.0592 53.2719 45.2699 53.0647 45.5163 52.8255C48.1769 50.2256 55.2337 43.333 57.5854 40.4635C58.4961 38.9314 59.4961 37.0958 60.0425 35.053C60.9674 31.5818 61.2424 28.6998 60.8978 26.0195C58.98 25.7624 56.4087 25.966 53.9267 26.5766C49.5733 27.648 47.0627 28.8194 45.2592 30.6229L45.1985 30.6836C41.5969 33.7674 38.1952 37.2047 33.4883 42.0438L44.8878 53.4433L44.8878 53.4397Z"
      fill="black" />
    <path fill-rule="evenodd" clip-rule="evenodd"
      d="M49.6195 40.4889C51.3375 40.4889 52.7303 39.0962 52.7303 37.3781C52.7303 35.6601 51.3375 34.2673 49.6195 34.2673C47.9014 34.2673 46.5087 35.6601 46.5087 37.3781C46.5087 39.0962 47.9014 40.4889 49.6195 40.4889ZM49.6195 43.4889C52.9944 43.4889 55.7303 40.753 55.7303 37.3781C55.7303 34.0032 52.9944 31.2673 49.6195 31.2673C46.2446 31.2673 43.5087 34.0032 43.5087 37.3781C43.5087 40.753 46.2446 43.4889 49.6195 43.4889Z"
      fill="#FF6633" />
  </svg>
  <svg id="divider" width="1" fill="none" viewBox="0 0 1 50">
    <path d="M0.549438 49.5422V0.554443" stroke="currentcolor" stroke-width="0.5" />
  </svg>
  <svg id="plus" fill="none" viewBox="0 0 32 32">
    <rect width="32" height="32" rx="16" fill="#F5F5F5" />
    <path
      d="M21.604 14.7159V17.1639H17.308V21.6759H14.692V17.1639H10.396V14.7159H14.692V10.3239H17.308V14.7159H21.604Z"
      fill="#FF6633" />
  </svg>
  <svg id="minus" fill="none" viewBox="0 0 32 32">
    <rect width="32" height="32" rx="16" fill="#F5F5F5" />
    <path d="M9.89197 17.2839V14.7159H22.108V17.2839H9.89197Z" fill="#888888" />
  </svg>
  <svg id="arow-down-small" viewBox="0 0 8 26">
    <path
      d="M4.5 1C4.5 0.723858 4.27614 0.5 4 0.5C3.72386 0.5 3.5 0.723858 3.5 1L4.5 1ZM3.64645 25.3536C3.84171 25.5488 4.15829 25.5488 4.35355 25.3536L7.53553 22.1716C7.7308 21.9763 7.7308 21.6597 7.53553 21.4645C7.34027 21.2692 7.02369 21.2692 6.82843 21.4645L4 24.2929L1.17157 21.4645C0.976312 21.2692 0.659729 21.2692 0.464467 21.4645C0.269205 21.6597 0.269205 21.9763 0.464467 22.1716L3.64645 25.3536ZM3.5 2.5C3.5 2.77614 3.72386 3 4 3C4.27614 3 4.5 2.77614 4.5 2.5L3.5 2.5ZM4.5 5.5C4.5 5.22386 4.27614 5 4 5C3.72386 5 3.5 5.22386 3.5 5.5L4.5 5.5ZM3.5 8.5C3.5 8.77614 3.72386 9 4 9C4.27614 9 4.5 8.77614 4.5 8.5L3.5 8.5ZM4.5 11.5C4.5 11.2239 4.27614 11 4 11C3.72386 11 3.5 11.2239 3.5 11.5L4.5 11.5ZM3.5 14.5C3.5 14.7761 3.72386 15 4 15C4.27614 15 4.5 14.7761 4.5 14.5L3.5 14.5ZM4.5 17.5C4.5 17.2239 4.27614 17 4 17C3.72386 17 3.5 17.2239 3.5 17.5L4.5 17.5ZM3.5 20.5C3.5 20.7761 3.72386 21 4 21C4.27614 21 4.5 20.7761 4.5 20.5L3.5 20.5ZM4.5 23.5C4.5 23.2239 4.27614 23 4 23C3.72386 23 3.5 23.2239 3.5 23.5L4.5 23.5ZM3.5 1L3.5 2.5L4.5 2.5L4.5 1L3.5 1ZM3.5 5.5L3.5 8.5L4.5 8.5L4.5 5.5L3.5 5.5ZM3.5 11.5L3.5 14.5L4.5 14.5L4.5 11.5L3.5 11.5ZM3.5 17.5L3.5 20.5L4.5 20.5L4.5 17.5L3.5 17.5ZM3.5 23.5L3.5 25L4.5 25L4.5 23.5L3.5 23.5Z" fill="currentColor" />
  </svg>
  <svg id="arrow-down-large" viewBox="0 0 8 74">
      <path d="M4.27282 0.996844C4.27107 0.720707 4.04581 0.498267 3.76967 0.50001C3.49353 0.501753 3.27109 0.727019 3.27284 1.00316L4.27282 0.996844ZM3.87602 73.3543C4.07251 73.5484 4.38908 73.5464 4.58311 73.3499L7.74494 70.1479C7.93896 69.9514 7.93697 69.6348 7.74048 69.4408C7.54398 69.2468 7.22741 69.2488 7.03338 69.4452L4.22287 72.2915L1.37664 69.481C1.18015 69.2869 0.863574 69.2889 0.669548 69.4854C0.475522 69.6819 0.477521 69.9985 0.674012 70.1925L3.87602 73.3543ZM3.28231 2.50313C3.28405 2.77926 3.50932 3.0017 3.78545 2.99996C4.06159 2.99822 4.28403 2.77295 4.28229 2.49681L3.28231 2.50313ZM4.30122 5.49675C4.29948 5.22062 4.07421 4.99818 3.79808 4.99992C3.52194 5.00166 3.2995 5.22693 3.30124 5.50307L4.30122 5.49675ZM3.32018 8.50301C3.32192 8.77914 3.54719 9.00158 3.82333 8.99984C4.09946 8.9981 4.3219 8.77283 4.32016 8.49669L3.32018 8.50301ZM4.3391 11.4966C4.33736 11.2205 4.11209 10.9981 3.83595 10.9998C3.55982 11.0015 3.33738 11.2268 3.33912 11.5029L4.3391 11.4966ZM3.35806 14.5029C3.3598 14.779 3.58507 15.0015 3.8612 14.9997C4.13734 14.998 4.35978 14.7727 4.35804 14.4966L3.35806 14.5029ZM4.37697 17.4965C4.37523 17.2204 4.14996 16.9979 3.87383 16.9997C3.59769 17.0014 3.37525 17.2267 3.37699 17.5028L4.37697 17.4965ZM3.39593 20.5028C3.39767 20.7789 3.62294 21.0013 3.89908 20.9996C4.17521 20.9979 4.39765 20.7726 4.39591 20.4965L3.39593 20.5028ZM4.41485 23.4964C4.41311 23.2203 4.18784 22.9978 3.9117 22.9996C3.63557 23.0013 3.41313 23.2266 3.41487 23.5027L4.41485 23.4964ZM3.43381 26.5026C3.43555 26.7788 3.66082 27.0012 3.93695 26.9995C4.21309 26.9977 4.43553 26.7725 4.43379 26.4963L3.43381 26.5026ZM4.45272 29.4963C4.45098 29.2201 4.22572 28.9977 3.94958 28.9994C3.67344 29.0012 3.451 29.2265 3.45274 29.5026L4.45272 29.4963ZM3.47168 32.5025C3.47343 32.7787 3.69869 33.0011 3.97483 32.9994C4.25097 32.9976 4.47341 32.7724 4.47166 32.4962L3.47168 32.5025ZM4.4906 35.4962C4.48886 35.22 4.26359 34.9976 3.98745 34.9993C3.71132 35.0011 3.48888 35.2263 3.49062 35.5025L4.4906 35.4962ZM3.50956 38.5024C3.5113 38.7785 3.73657 39.001 4.0127 38.9992C4.28884 38.9975 4.51128 38.7722 4.50954 38.4961L3.50956 38.5024ZM4.52847 41.496C4.52673 41.2199 4.30147 40.9975 4.02533 40.9992C3.74919 41.0009 3.52675 41.2262 3.52849 41.5023L4.52847 41.496ZM3.54743 44.5023C3.54918 44.7784 3.77444 45.0009 4.05058 44.9991C4.32672 44.9974 4.54916 44.7721 4.54741 44.496L3.54743 44.5023ZM4.56635 47.4959C4.56461 47.2198 4.33934 46.9973 4.0632 46.9991C3.78707 47.0008 3.56463 47.2261 3.56637 47.5022L4.56635 47.4959ZM3.58531 50.5022C3.58705 50.7783 3.81232 51.0007 4.08845 50.999C4.36459 50.9973 4.58703 50.772 4.58529 50.4959L3.58531 50.5022ZM4.60423 53.4958C4.60248 53.2197 4.37722 52.9972 4.10108 52.999C3.82494 53.0007 3.6025 53.226 3.60425 53.5021L4.60423 53.4958ZM3.62318 56.502C3.62493 56.7782 3.85019 57.0006 4.12633 56.9989C4.40247 56.9971 4.62491 56.7719 4.62316 56.4957L3.62318 56.502ZM4.6421 59.4957C4.64036 59.2195 4.41509 58.9971 4.13895 58.9988C3.86282 59.0006 3.64038 59.2259 3.64212 59.502L4.6421 59.4957ZM3.66106 62.5019C3.6628 62.7781 3.88807 63.0005 4.1642 62.9988C4.44034 62.997 4.66278 62.7718 4.66104 62.4956L3.66106 62.5019ZM4.67998 65.4956C4.67823 65.2194 4.45297 64.997 4.17683 64.9987C3.90069 65.0005 3.67825 65.2257 3.68 65.5019L4.67998 65.4956ZM3.69893 68.5018C3.70068 68.7779 3.92594 69.0004 4.20208 68.9986C4.47822 68.9969 4.70066 68.7716 4.69891 68.4955L3.69893 68.5018ZM4.71785 71.4954C4.71611 71.2193 4.49084 70.9969 4.2147 70.9986C3.93857 71.0003 3.71613 71.2256 3.71787 71.5018L4.71785 71.4954ZM3.27284 1.00316L3.28231 2.50313L4.28229 2.49681L4.27282 0.996844L3.27284 1.00316ZM3.30124 5.50307L3.32018 8.50301L4.32016 8.49669L4.30122 5.49675L3.30124 5.50307ZM3.33912 11.5029L3.35806 14.5029L4.35804 14.4966L4.3391 11.4966L3.33912 11.5029ZM3.37699 17.5028L3.39593 20.5028L4.39591 20.4965L4.37697 17.4965L3.37699 17.5028ZM3.41487 23.5027L3.43381 26.5026L4.43379 26.4963L4.41485 23.4964L3.41487 23.5027ZM3.45274 29.5026L3.47168 32.5025L4.47166 32.4962L4.45272 29.4963L3.45274 29.5026ZM3.49062 35.5025L3.50956 38.5024L4.50954 38.4961L4.4906 35.4962L3.49062 35.5025ZM3.52849 41.5023L3.54743 44.5023L4.54741 44.496L4.52847 41.496L3.52849 41.5023ZM3.56637 47.5022L3.58531 50.5022L4.58529 50.4959L4.56635 47.4959L3.56637 47.5022ZM3.60425 53.5021L3.62318 56.502L4.62316 56.4957L4.60423 53.4958L3.60425 53.5021ZM3.64212 59.502L3.66106 62.5019L4.66104 62.4956L4.6421 59.4957L3.64212 59.502ZM3.68 65.5019L3.69893 68.5018L4.69891 68.4955L4.67998 65.4956L3.68 65.5019ZM3.71787 71.5018L3.72734 73.0017L4.72732 72.9954L4.71785 71.4954L3.71787 71.5018Z" fill="currentColor"/>
  </svg>
  <svg id="arrow-right" viewBox="0 0 282 12">
    <path
      d="M1.00537 3.68073C0.591159 3.67905 0.25401 4.01347 0.252326 4.42768C0.250641 4.84189 0.585059 5.17903 0.99927 5.18072L1.00537 3.68073ZM281.528 6.1018C281.822 5.8101 281.824 5.33523 281.532 5.04115L276.779 0.24881C276.487 -0.0452722 276.012 -0.0472033 275.718 0.244497C275.424 0.536197 275.422 1.01107 275.714 1.30515L279.939 5.56501L275.68 9.79036C275.385 10.0821 275.383 10.5569 275.675 10.851C275.967 11.1451 276.442 11.147 276.736 10.8553L281.528 6.1018ZM2.99925 5.18885C3.41346 5.19054 3.75061 4.85612 3.7523 4.44191C3.75398 4.0277 3.41956 3.69055 3.00535 3.68886L2.99925 5.18885ZM7.00532 3.70513C6.59111 3.70345 6.25396 4.03786 6.25228 4.45207C6.25059 4.86628 6.58501 5.20343 6.99922 5.20512L7.00532 3.70513ZM10.9992 5.22138C11.4134 5.22307 11.7505 4.88865 11.7522 4.47444C11.7539 4.06023 11.4195 3.72308 11.0053 3.7214L10.9992 5.22138ZM15.0053 3.73766C14.591 3.73598 14.2539 4.07039 14.2522 4.4846C14.2505 4.89882 14.5849 5.23596 14.9992 5.23765L15.0053 3.73766ZM18.9991 5.25391C19.4133 5.2556 19.7505 4.92118 19.7522 4.50697C19.7539 4.09276 19.4194 3.75561 19.0052 3.75393L18.9991 5.25391ZM23.0052 3.77019C22.591 3.76851 22.2538 4.10293 22.2521 4.51714C22.2505 4.93135 22.5849 5.2685 22.9991 5.27018L23.0052 3.77019ZM26.9991 5.28645C27.4133 5.28813 27.7504 4.95371 27.7521 4.5395C27.7538 4.12529 27.4194 3.78814 27.0052 3.78646L26.9991 5.28645ZM31.0051 3.80272C30.5909 3.80104 30.2538 4.13546 30.2521 4.54967C30.2504 4.96388 30.5848 5.30103 30.999 5.30271L31.0051 3.80272ZM34.999 5.31898C35.4132 5.32066 35.7503 4.98624 35.752 4.57203C35.7537 4.15782 35.4193 3.82067 35.0051 3.81899L34.999 5.31898ZM39.0051 3.83525C38.5908 3.83357 38.2537 4.16799 38.252 4.5822C38.2503 4.99641 38.5847 5.33356 38.999 5.33524L39.0051 3.83525ZM42.9989 5.35151C43.4131 5.35319 43.7503 5.01877 43.752 4.60456C43.7537 4.19035 43.4192 3.8532 43.005 3.85152L42.9989 5.35151ZM47.005 3.86779C46.5908 3.8661 46.2536 4.20052 46.2519 4.61473C46.2503 5.02894 46.5847 5.36609 46.9989 5.36777L47.005 3.86779ZM50.9989 5.38404C51.4131 5.38572 51.7502 5.05131 51.7519 4.6371C51.7536 4.22289 51.4192 3.88574 51.005 3.88405L50.9989 5.38404ZM55.0049 3.90032C54.5907 3.89863 54.2536 4.23305 54.2519 4.64726C54.2502 5.06147 54.5846 5.39862 54.9988 5.4003L55.0049 3.90032ZM58.9988 5.41657C59.413 5.41825 59.7502 5.08384 59.7518 4.66963C59.7535 4.25542 59.4191 3.91827 59.0049 3.91658L58.9988 5.41657ZM63.0049 3.93285C62.5906 3.93116 62.2535 4.26558 62.2518 4.67979C62.2501 5.094 62.5845 5.43115 62.9988 5.43284L63.0049 3.93285ZM66.9987 5.4491C67.4129 5.45079 67.7501 5.11637 67.7518 4.70216C67.7535 4.28795 67.419 3.9508 67.0048 3.94911L66.9987 5.4491ZM71.0048 3.96538C70.5906 3.9637 70.2534 4.29811 70.2517 4.71232C70.2501 5.12653 70.5845 5.46368 70.9987 5.46537L71.0048 3.96538ZM74.9987 5.48163C75.4129 5.48332 75.75 5.1489 75.7517 4.73469C75.7534 4.32048 75.419 3.98333 75.0048 3.98165L74.9987 5.48163ZM79.0047 3.99791C78.5905 3.99623 78.2534 4.33064 78.2517 4.74486C78.25 5.15907 78.5844 5.49621 78.9986 5.4979L79.0047 3.99791ZM82.9986 5.51416C83.4128 5.51585 83.7499 5.18143 83.7516 4.76722C83.7533 4.35301 83.4189 4.01586 83.0047 4.01418L82.9986 5.51416ZM87.0047 4.03044C86.5904 4.02876 86.2533 4.36318 86.2516 4.77739C86.2499 5.1916 86.5843 5.52875 86.9986 5.53043L87.0047 4.03044ZM90.9985 5.5467C91.4127 5.54838 91.7499 5.21396 91.7516 4.79975C91.7533 4.38554 91.4188 4.04839 91.0046 4.04671L90.9985 5.5467ZM95.0046 4.06297C94.5904 4.06129 94.2532 4.39571 94.2515 4.80992C94.2499 5.22413 94.5843 5.56128 94.9985 5.56296L95.0046 4.06297ZM98.9985 5.57923C99.4127 5.58091 99.7498 5.24649 99.7515 4.83228C99.7532 4.41807 99.4188 4.08092 99.0046 4.07924L98.9985 5.57923ZM103.005 4.0955C102.59 4.09382 102.253 4.42824 102.251 4.84245C102.25 5.25666 102.584 5.59381 102.998 5.59549L103.005 4.0955ZM106.998 5.61176C107.413 5.61344 107.75 5.27902 107.751 4.86481C107.753 4.4506 107.419 4.11345 107.004 4.11177L106.998 5.61176ZM111.004 4.12804C110.59 4.12635 110.253 4.46077 110.251 4.87498C110.25 5.28919 110.584 5.62634 110.998 5.62802L111.004 4.12804ZM114.998 5.64429C115.413 5.64597 115.75 5.31156 115.751 4.89735C115.753 4.48314 115.419 4.14599 115.004 4.1443L114.998 5.64429ZM119.004 4.16057C118.59 4.15888 118.253 4.4933 118.251 4.90751C118.25 5.32172 118.584 5.65887 118.998 5.66055L119.004 4.16057ZM122.998 5.67682C123.412 5.6785 123.75 5.34409 123.751 4.92988C123.753 4.51567 123.419 4.17852 123.004 4.17683L122.998 5.67682ZM127.004 4.1931C126.59 4.19141 126.253 4.52583 126.251 4.94004C126.25 5.35425 126.584 5.6914 126.998 5.69309L127.004 4.1931ZM130.998 5.70935C131.412 5.71104 131.75 5.37662 131.751 4.96241C131.753 4.5482 131.419 4.21105 131.004 4.20936L130.998 5.70935ZM135.004 4.22563C134.59 4.22395 134.253 4.55836 134.251 4.97257C134.25 5.38678 134.584 5.72393 134.998 5.72562L135.004 4.22563ZM138.998 5.74188C139.412 5.74357 139.749 5.40915 139.751 4.99494C139.753 4.58073 139.418 4.24358 139.004 4.2419L138.998 5.74188ZM143.004 4.25816C142.59 4.25648 142.253 4.59089 142.251 5.00511C142.249 5.41932 142.584 5.75646 142.998 5.75815L143.004 4.25816ZM146.998 5.77441C147.412 5.7761 147.749 5.44168 147.751 5.02747C147.753 4.61326 147.418 4.27611 147.004 4.27443L146.998 5.77441ZM151.004 4.29069C150.59 4.28901 150.253 4.62343 150.251 5.03764C150.249 5.45185 150.584 5.789 150.998 5.79068L151.004 4.29069ZM154.998 5.80695C155.412 5.80863 155.749 5.47421 155.751 5.06C155.753 4.64579 155.418 4.30864 155.004 4.30696L154.998 5.80695ZM159.004 4.32322C158.59 4.32154 158.253 4.65596 158.251 5.07017C158.249 5.48438 158.584 5.82153 158.998 5.82321L159.004 4.32322ZM162.998 5.83948C163.412 5.84116 163.749 5.50674 163.751 5.09253C163.753 4.67832 163.418 4.34117 163.004 4.33949L162.998 5.83948ZM167.004 4.35575C166.59 4.35407 166.253 4.68849 166.251 5.1027C166.249 5.51691 166.584 5.85406 166.998 5.85574L167.004 4.35575ZM170.998 5.87201C171.412 5.87369 171.749 5.53927 171.751 5.12506C171.753 4.71085 171.418 4.3737 171.004 4.37202L170.998 5.87201ZM175.004 4.38829C174.59 4.3866 174.253 4.72102 174.251 5.13523C174.249 5.54944 174.584 5.88659 174.998 5.88827L175.004 4.38829ZM178.998 5.90454C179.412 5.90622 179.749 5.57181 179.751 5.1576C179.753 4.74339 179.418 4.40624 179.004 4.40455L178.998 5.90454ZM183.004 4.42082C182.59 4.41913 182.253 4.75355 182.251 5.16776C182.249 5.58197 182.584 5.91912 182.998 5.9208L183.004 4.42082ZM186.998 5.93707C187.412 5.93875 187.749 5.60434 187.751 5.19013C187.752 4.77592 187.418 4.43877 187.004 4.43708L186.998 5.93707ZM191.004 4.45335C190.59 4.45166 190.252 4.78608 190.251 5.20029C190.249 5.6145 190.583 5.95165 190.998 5.95334L191.004 4.45335ZM194.998 5.9696C195.412 5.97129 195.749 5.63687 195.751 5.22266C195.752 4.80845 195.418 4.4713 195.004 4.46961L194.998 5.9696ZM199.004 4.48588C198.59 4.4842 198.252 4.81861 198.251 5.23282C198.249 5.64703 198.583 5.98418 198.998 5.98587L199.004 4.48588ZM202.998 6.00213C203.412 6.00382 203.749 5.6694 203.751 5.25519C203.752 4.84098 203.418 4.50383 203.004 4.50215L202.998 6.00213ZM207.004 4.51841C206.589 4.51673 206.252 4.85114 206.251 5.26536C206.249 5.67957 206.583 6.01671 206.998 6.0184L207.004 4.51841ZM210.998 6.03466C211.412 6.03635 211.749 5.70193 211.751 5.28772C211.752 4.87351 211.418 4.53636 211.004 4.53468L210.998 6.03466ZM215.004 4.55094C214.589 4.54926 214.252 4.88368 214.251 5.29789C214.249 5.7121 214.583 6.04925 214.998 6.05093L215.004 4.55094ZM218.997 6.0672C219.412 6.06888 219.749 5.73446 219.751 5.32025C219.752 4.90604 219.418 4.56889 219.004 4.56721L218.997 6.0672ZM223.004 4.58347C222.589 4.58179 222.252 4.91621 222.251 5.33042C222.249 5.74463 222.583 6.08178 222.997 6.08346L223.004 4.58347ZM226.997 6.09973C227.412 6.10141 227.749 5.76699 227.75 5.35278C227.752 4.93857 227.418 4.60142 227.003 4.59974L226.997 6.09973ZM231.003 4.616C230.589 4.61432 230.252 4.94874 230.25 5.36295C230.249 5.77716 230.583 6.11431 230.997 6.11599L231.003 4.616ZM234.997 6.13226C235.412 6.13394 235.749 5.79952 235.75 5.38531C235.752 4.9711 235.418 4.63395 235.003 4.63227L234.997 6.13226ZM239.003 4.64854C238.589 4.64685 238.252 4.98127 238.25 5.39548C238.249 5.80969 238.583 6.14684 238.997 6.14852L239.003 4.64854ZM242.997 6.16479C243.411 6.16647 243.749 5.83206 243.75 5.41785C243.752 5.00364 243.418 4.66649 243.003 4.6648L242.997 6.16479ZM247.003 4.68107C246.589 4.67938 246.252 5.0138 246.25 5.42801C246.249 5.84222 246.583 6.17937 246.997 6.18106L247.003 4.68107ZM250.997 6.19732C251.411 6.199 251.749 5.86459 251.75 5.45038C251.752 5.03617 251.418 4.69902 251.003 4.69733L250.997 6.19732ZM255.003 4.7136C254.589 4.71191 254.252 5.04633 254.25 5.46054C254.249 5.87475 254.583 6.2119 254.997 6.21359L255.003 4.7136ZM258.997 6.22985C259.411 6.23154 259.748 5.89712 259.75 5.48291C259.752 5.0687 259.417 4.73155 259.003 4.72986L258.997 6.22985ZM263.003 4.74613C262.589 4.74445 262.252 5.07886 262.25 5.49307C262.248 5.90728 262.583 6.24443 262.997 6.24612L263.003 4.74613ZM266.997 6.26238C267.411 6.26407 267.748 5.92965 267.75 5.51544C267.752 5.10123 267.417 4.76408 267.003 4.7624L266.997 6.26238ZM271.003 4.77866C270.589 4.77698 270.252 5.11139 270.25 5.52561C270.248 5.93982 270.583 6.27696 270.997 6.27865L271.003 4.77866ZM274.997 6.29491C275.411 6.2966 275.748 5.96218 275.75 5.54797C275.752 5.13376 275.417 4.79661 275.003 4.79493L274.997 6.29491ZM279.003 4.81119C278.589 4.80951 278.252 5.14393 278.25 5.55814C278.248 5.97235 278.583 6.3095 278.997 6.31118L279.003 4.81119ZM0.99927 5.18072L2.99925 5.18885L3.00535 3.68886L1.00537 3.68073L0.99927 5.18072ZM6.99922 5.20512L10.9992 5.22138L11.0053 3.7214L7.00532 3.70513L6.99922 5.20512ZM14.9992 5.23765L18.9991 5.25391L19.0052 3.75393L15.0053 3.73766L14.9992 5.23765ZM22.9991 5.27018L26.9991 5.28645L27.0052 3.78646L23.0052 3.77019L22.9991 5.27018ZM30.999 5.30271L34.999 5.31898L35.0051 3.81899L31.0051 3.80272L30.999 5.30271ZM38.999 5.33524L42.9989 5.35151L43.005 3.85152L39.0051 3.83525L38.999 5.33524ZM46.9989 5.36777L50.9989 5.38404L51.005 3.88405L47.005 3.86779L46.9989 5.36777ZM54.9988 5.4003L58.9988 5.41657L59.0049 3.91658L55.0049 3.90032L54.9988 5.4003ZM62.9988 5.43284L66.9987 5.4491L67.0048 3.94911L63.0049 3.93285L62.9988 5.43284ZM70.9987 5.46537L74.9987 5.48163L75.0048 3.98165L71.0048 3.96538L70.9987 5.46537ZM78.9986 5.4979L82.9986 5.51416L83.0047 4.01418L79.0047 3.99791L78.9986 5.4979ZM86.9986 5.53043L90.9985 5.5467L91.0046 4.04671L87.0047 4.03044L86.9986 5.53043ZM94.9985 5.56296L98.9985 5.57923L99.0046 4.07924L95.0046 4.06297L94.9985 5.56296ZM102.998 5.59549L106.998 5.61176L107.004 4.11177L103.005 4.0955L102.998 5.59549ZM110.998 5.62802L114.998 5.64429L115.004 4.1443L111.004 4.12804L110.998 5.62802ZM118.998 5.66055L122.998 5.67682L123.004 4.17683L119.004 4.16057L118.998 5.66055ZM126.998 5.69309L130.998 5.70935L131.004 4.20936L127.004 4.1931L126.998 5.69309ZM134.998 5.72562L138.998 5.74188L139.004 4.2419L135.004 4.22563L134.998 5.72562ZM142.998 5.75815L146.998 5.77441L147.004 4.27443L143.004 4.25816L142.998 5.75815ZM150.998 5.79068L154.998 5.80695L155.004 4.30696L151.004 4.29069L150.998 5.79068ZM158.998 5.82321L162.998 5.83948L163.004 4.33949L159.004 4.32322L158.998 5.82321ZM166.998 5.85574L170.998 5.87201L171.004 4.37202L167.004 4.35575L166.998 5.85574ZM174.998 5.88827L178.998 5.90454L179.004 4.40455L175.004 4.38829L174.998 5.88827ZM182.998 5.9208L186.998 5.93707L187.004 4.43708L183.004 4.42082L182.998 5.9208ZM190.998 5.95334L194.998 5.9696L195.004 4.46961L191.004 4.45335L190.998 5.95334ZM198.998 5.98587L202.998 6.00213L203.004 4.50215L199.004 4.48588L198.998 5.98587ZM206.998 6.0184L210.998 6.03466L211.004 4.53468L207.004 4.51841L206.998 6.0184ZM214.998 6.05093L218.997 6.0672L219.004 4.56721L215.004 4.55094L214.998 6.05093ZM222.997 6.08346L226.997 6.09973L227.003 4.59974L223.004 4.58347L222.997 6.08346ZM230.997 6.11599L234.997 6.13226L235.003 4.63227L231.003 4.616L230.997 6.11599ZM238.997 6.14852L242.997 6.16479L243.003 4.6648L239.003 4.64854L238.997 6.14852ZM246.997 6.18106L250.997 6.19732L251.003 4.69733L247.003 4.68107L246.997 6.18106ZM254.997 6.21359L258.997 6.22985L259.003 4.72986L255.003 4.7136L254.997 6.21359ZM262.997 6.24612L266.997 6.26238L267.003 4.7624L263.003 4.74613L262.997 6.24612ZM270.997 6.27865L274.997 6.29491L275.003 4.79493L271.003 4.77866L270.997 6.27865ZM278.997 6.31118L280.997 6.31931L281.003 4.81933L279.003 4.81119L278.997 6.31118Z"
      fill="currentColor" />
  </svg>


  <svg id="close" stroke-width="2" stroke="currentcolor" stroke-linecap="round"
    stroke-linejoin="round" viewBox="0 0 24 24">
    <path d="M18 6L6 18M6 6L18 18" />
  </svg>
  <svg id="external" fill="none" stroke="currentcolor" stroke-width="2" stroke-linecap="round"
    stroke-linejoin="round" viewBox="0 0 24 24">
    <path d="M10 6H18V14" />
    <path d="M6 18L18 6" />
  </svg>
  <!-- <svg id="filter" fill="none" stroke="currentcolor" stroke-width="2" stroke-linecap="round"
  stroke-linejoin="round" viewBox="0 0 24 24">
		<path d="M2 4.6c0-.56 0-.84.1-1.05a1 1 0 0 1 .45-.44C2.76 3 3.04 3 3.6 3h16.8c.56 0 .84 0 1.05.1a1
  1 0 0 1 .44.45c.11.21.11.49.11 1.05v.67c0 .27 0 .4-.03.53a1 1 0 0
  1-.14.3c-.08.11-.18.2-.38.38l-6.4 5.54c-.2.18-.3.27-.38.37a1 1 0 0
  0-.14.31c-.03.13-.03.26-.03.53v5.23c0 .2 0 .3-.03.38a.5.5 0 0 1-.13.2c-.07.05-.16.09-.34.16l-3.4
  1.36c-.37.15-.55.22-.7.2a.5.5 0 0 1-.32-.22c-.08-.13-.08-.33-.08-.72v-6.59c0-.27 0-.4-.03-.53a1 1
  0 0 0-.14-.3c-.08-.11-.18-.2-.38-.38l-6.4-5.54c-.2-.18-.3-.27-.38-.37a1 1 0 0 1-.14-.31C2 5.67 2
  5.54 2 5.27V4.6Z"/>
	</svg> -->
  <svg id="left" fill="none" stroke="currentcolor" stroke-width="2" stroke-linecap="round"
    stroke-linejoin="round" viewBox="0 0 24 24">
    <path d="M10 6L4 12L10 18" />
    <path d="M20 12H4" />
  </svg>
  <!-- <svg id="linkedin" fill="currentcolor" viewBox="0 0 24 24">
		<path d="M20.47 2H3.53a1.45 1.45 0 0 0-1.47 1.43v17.14A1.45 1.45 0 0 0 3.53 22h16.94a1.45 1.45 0 0
  0 1.47-1.43V3.43A1.45 1.45 0 0 0 20.47 2ZM8.09 18.74h-3v-9h3v9ZM6.59 8.48a1.56 1.56 0 0 1 0-3.12
  1.57 1.57 0 1 1 0 3.12Zm12.32 10.26h-3v-4.83c0-1.21-.43-2-1.52-2A1.65 1.65 0 0 0 12.85 13a2 2 0 0
  0-.1.73v5h-3v-9h3V11a3 3 0 0 1 2.71-1.5c2 0 3.45 1.29 3.45 4.06v5.18Z"/>
	</svg> -->
  <!-- <svg id="location" fill="none" stroke="currentcolor" stroke-width="2" stroke-linejoin="round"
  viewBox="0 0 24 24">
		<path d="M12 2a15.3 15.3 0 0 1 4 10 15.3 15.3 0 0 1-4 10 15.3 15.3 0 0 1-4-10 15.3 15.3 0 0 1
  4-10Z"/>
		<path d="M12 22a10 10 0 1 0 0-20 10 10 0 0 0 0 20Z"/>
		<path d="M2 12h20"/>
	</svg> -->
  <svg id="mail" fill="none" stroke="currentcolor" stroke-width="2" stroke-linejoin="round"
    viewBox="0 0 24 24">
    <path d="m4 6 8 6 8-6" />
    <rect x="3" y="5" width="18" height="14" rx="2" />
  </svg>
  <svg id="menu" stroke="currentcolor" stroke-width="2" stroke-linecap="round" viewBox="0 0 24 24">
    <path d="M3 6h18M3 12h12M3 18h18" />
  </svg>
  <svg id="index" stroke="currentcolor" stroke-width="2" stroke-linecap="round" viewBox="0 0 24 24">
    <path
      d="M21 12H9m12-6H9m12 12H9m-4-6a1 1 0 1 1-2 0 1 1 0 0 1 2 0Zm0-6a1 1 0 1 1-2 0 1 1 0 0 1 2 0Zm0 12a1 1 0 1 1-2 0 1 1 0 0 1 2 0Z" />
  </svg>
  <!-- <svg id="play" fill="none" stroke="currentcolor" stroke-width="2" viewBox="0 0 24 24">
		<path d="M5 4.99c0-.97 0-1.46.2-1.72a1 1 0 0 1 .74-.4c.34-.02.74.25 1.55.79l10.51 7c.67.45 1 .68
  1.12.96a1 1 0 0 1 0 .76c-.12.28-.45.5-1.12.95L7.5 20.34c-.81.54-1.21.81-1.55.79a1 1 0 0
  1-.74-.4c-.2-.26-.2-.75-.2-1.72V4.99Z"/>
	</svg> -->
  <svg id="right" fill="none" stroke="currentcolor" stroke-width="2" stroke-linecap="round"
    stroke-linejoin="round" viewBox="0 0 24 24">
    <path d="M14 6L20 12L14 18" />
    <path d="M4 12H20" />
  </svg>
  <svg id="rss" fill="none" stroke="currentcolor" stroke-width="2" stroke-linecap="round"
    viewBox="0 0 24 24">
    <path d="M4 11a9 9 0 0 1 9 9M4 4a16 16 0 0 1 16 16M5 20a1 1 0 1 0 0-2 1 1 0 0 0 0 2Z" />
  </svg>
  <svg id="telegram" fill="currentcolor" viewBox="0 0 24 24">
    <path
      d="M2.44 11.32c5.64-2.4 9.4-3.98 11.28-4.75C19.1 4.4 20.21 4.01 20.93 4c.16 0 .52.04.75.22.2.15.25.36.28.51.02.15.06.48.03.74a218.9 218.9 0 0 1-2.19 13.59c-.27 1.41-.8 1.89-1.32 1.93-1.12.1-1.98-.72-3.06-1.42-1.7-1.09-2.67-1.77-4.32-2.83-1.9-1.23-.67-1.9.42-3.01.28-.29 5.23-4.68 5.32-5.08.02-.05.03-.24-.09-.34-.1-.1-.28-.06-.4-.04-.17.04-2.89 1.8-8.15 5.27-.77.52-1.47.77-2.1.76-.69-.02-2.02-.38-3-.7-1.22-.38-2.18-.58-2.1-1.24.05-.34.53-.69 1.44-1.04Z" />
  </svg>
  <svg id="text" fill="none" stroke="currentcolor" stroke-width="2" stroke-linecap="round"
    viewBox="0 0 24 24">
    <path
      d="M8 7h8m-8 4h6m-6 4h2M4 6.8c0-1.68 0-2.52.33-3.16a3 3 0 0 1 1.3-1.31C6.29 2 7.13 2 8.8 2h6.4c1.68 0 2.52 0 3.16.33a3 3 0 0 1 1.31 1.3c.33.65.33 1.49.33 3.17v10.4c0 1.68 0 2.52-.33 3.16a3 3 0 0 1-1.3 1.31c-.65.33-1.49.33-3.17.33H8.8c-1.68 0-2.52 0-3.16-.33a3 3 0 0 1-1.31-1.3C4 19.71 4 18.87 4 17.2V6.8Z" />
  </svg>
  <svg id="twitter" fill="currentcolor" viewBox="0 0 24 24">
    <path
      d="M22 5.8a8.5 8.5 0 0 1-2.36.64 4.13 4.13 0 0 0 1.81-2.27 8.2 8.2 0 0 1-2.61 1 4.1 4.1 0 0 0-7 3.74 11.64 11.64 0 0 1-8.45-4.29 4.16 4.16 0 0 0-.07 4c.32.6.78 1.1 1.34 1.48a4.05 4.05 0 0 1-1.86-.51v.05a4.1 4.1 0 0 0 3.3 4 3.93 3.93 0 0 1-1.87.1 4.11 4.11 0 0 0 3.83 2.84A8.22 8.22 0 0 1 2 18.28a11.57 11.57 0 0 0 6.29 1.85A11.59 11.59 0 0 0 20 8.45v-.53a8.43 8.43 0 0 0 2-2.12Z" />
  </svg>
  <svg id="video" fill="none" stroke="currentcolor" stroke-width="2" stroke-linecap="round"
    stroke-linejoin="round" viewBox="0 0 24 24">
    <path
      d="M22 8.93c0-.6 0-.9-.12-1.05a.5.5 0 0 0-.42-.17c-.18.01-.4.23-.83.66L17 12l3.63 3.63c.43.43.65.65.83.66a.5.5 0 0 0 .42-.17c.12-.14.12-.45.12-1.05V8.93ZM2 9.8c0-1.68 0-2.52.33-3.16a3 3 0 0 1 1.3-1.31C4.29 5 5.13 5 6.8 5h5.4c1.68 0 2.52 0 3.16.33a3 3 0 0 1 1.31 1.3c.33.65.33 1.49.33 3.17v4.4c0 1.68 0 2.52-.33 3.16a3 3 0 0 1-1.3 1.31c-.65.33-1.49.33-3.17.33H6.8c-1.68 0-2.52 0-3.16-.33a3 3 0 0 1-1.31-1.3C2 16.71 2 15.87 2 14.2V9.8Z" />
  </svg>
  <!-- <svg id="youtube" fill="currentcolor" viewBox="0 0 24 24">
		<path d="M23 9.71a8.5 8.5 0 0 0-.91-4.13 2.92 2.92 0 0 0-1.72-1A78.36 78.36 0 0 0 12 4.27a77.4 77.4
  0 0 0-8.34.3c-.55.1-1.06.36-1.46.74-.9.83-1 2.25-1.1 3.45a48.29 48.29 0 0 0 0 6.48c.03.68.13
  1.35.3 2 .12.5.36.97.71 1.36.4.4.93.68 1.49.78 2.16.27 4.33.38 6.5.33 3.5.05 6.57 0 10.2-.28.58-.1
  1.11-.37 1.53-.78.28-.28.49-.62.61-1 .36-1.1.53-2.25.52-3.4.04-.56.04-3.94.04-4.54ZM9.74
  14.85V8.66l5.92 3.11c-1.66.92-3.85 1.96-5.92 3.08Z"/>
	</svg> -->
</svg>
